<svg version="1.1" xmlns="http://www.w3.org/2000/svg" xmlns:xlink="http://www.w3.org/1999/xlink" width="674.13387" height="389.0142" viewBox="0,0,674.13387,389.0142"><g transform="translate(111,5)"><g data-paper-data="{&quot;isPaintingLayer&quot;:true}" fill-rule="nonzero" stroke="none" stroke-width="1" stroke-linecap="butt" stroke-linejoin="miter" stroke-miterlimit="10" stroke-dasharray="" stroke-dashoffset="0" style="mix-blend-mode: normal"><path d="M-1.19056,278.93905v-283.93905h481.66334v283.93905z" fill="#64be96"/><path d="M563.13387,193.56843l-359.49871,2.72723c16.34568,-7.88064 160.7886,-64.93409 219.00496,-70.78406c36.74679,-3.68353 81.89369,-3.68353 83.10382,-3.68353l0.10035,0.06493c3.54186,-0.08855 35.8141,-0.3896 57.26006,-0.59031z" fill="#008264"/><path d="M214.85105,186.2604l-229.63054,-1.3341v-60.73108c87.89714,17.79194 212.51155,55.74886 229.63054,62.06518z" fill="#281446"/><path d="M262.01681,185.81767l-15.41889,30.64298l-257.83554,5.21834l2.95155,-81.7166c70.89622,9.63976 203.68642,29.41514 237.81223,37.75032c5.39543,1.31639 25.46597,6.30451 32.49065,8.10495z" fill="#006482"/><path d="M489.34514,244.45905l-480.98448,3.19358c25.03504,-10.55474 100.26413,-54.4915 132.84333,-62.24818c32.5792,-7.75667 174.59005,-24.44473 217.68267,-28.36439c8.85465,-1.35771 107.4364,-3.83701 112.22381,-3.8134c0.05372,0.0225 0.10512,0.05018 0.15348,0.08264c6.02116,-0.11413 12.04822,-0.183 18.08119,-0.20661z" fill="#00a0dc"/><path d="M375.7341,120.46446l-6.73544,-50.05237l11.21589,-5.11799c0,0 20.63723,42.37835 22.88041,51.58128c2.24318,9.20293 -2.01886,9.20293 -2.01886,9.20293z" fill="#fab414"/><path d="M341.61419,88.36341l-10.77316,35.2415l-10.32452,5.83817c-6.08609,-10.54884 16.71167,-66.19145 16.71167,-66.19145z" fill="#fab414"/><path d="M363.90429,78.11563l20.56049,-1.41084c2.2963,2.8512 46.91193,125.58252 46.91193,129.27786l-67.47242,15.047z" fill="#8c8264"/><path d="M400.79866,214.59527l-108.61702,22.43178c0.13577,-0.55489 39.78688,-151.31413 41.70539,-156.83353l37.98644,-8.45324z" fill="#aaa082"/><path d="M505.31302,50.0641c-1.05075,0.89727 -4.86415,0.07674 -6.15103,0c-2.8571,-0.15938 -5.73781,0.20071 -8.60672,0.20071c-5.84407,0.04132 -11.82391,-1.00353 -17.65026,-1.55251c-5.46037,0.53718 -11.2336,-0.01181 -16.32797,2.44388c-4.9468,2.37895 -6.49341,8.02231 -12.48505,8.61262c-6.12151,0.63753 -9.03174,-3.68353 -14.03757,-6.00935c-4.36239,-2.01886 -10.42487,-1.706 -12.74479,3.09322c-2.31992,4.79922 -2.24908,10.43668 -9.40364,9.92311c-5.43675,-0.3896 -8.73659,-5.99165 -11.38117,-10.07659c-1.47577,-2.2845 -2.41437,-4.16759 -5.08847,-5.02944c-2.52341,-0.72763 -5.21396,-0.62415 -7.67403,0.29515c-5.18882,1.98344 -5.98574,9.96443 -6.44618,14.68691l-36.88846,-0.88546c-5.74372,-4.83464 -12.001,-13.59484 -11.21589,-21.67028c0.78511,-8.07544 6.73544,-11.75307 14.69281,-10.18285c2.90432,0.5726 6.18054,1.81225 9.13209,0.73198c3.51825,-1.30458 4.07314,-5.06486 4.22072,-8.3883c0.14758,-3.21719 -0.1889,-6.092 1.43445,-9.04355c1.69419,-3.08142 5.12979,-5.43675 8.50637,-6.27499c3.49464,-0.89137 7.10143,0.59031 10.2891,1.9008c3.0578,1.32229 5.03534,4.0082 7.95147,5.45446c6.83579,3.40609 12.86876,-2.39666 17.53811,-6.49341c5.7142,-5.00583 12.53228,-9.04945 20.41292,-8.78971c8.10495,0.25383 15.26541,0.64344 23.02799,-1.85357c4.45684,-1.42855 8.47095,-2.57965 13.19342,-2.57965c4.53542,0.02209 9.06685,0.2723 13.57713,0.74969c4.76168,0.50749 9.55524,0.64958 14.33863,0.42502c3.74847,-0.21251 8.18169,-0.07084 11.75307,1.10978c2.63278,8.08134 2.01886,16.48735 2.82168,24.89337c0.77921,8.14628 1.706,16.24533 3.21129,24.30896z" fill="#aadcdc"/><path d="M333.07241,126.09602c-5.40134,-1.72961 -2.63278,-12.13087 -1.57613,-15.93837c1.53481,-5.51349 4.32107,-11.51104 0.68476,-16.5818l-2.77446,-1.00353c-0.04723,-2.74494 1.21013,-5.51349 1.83586,-8.14628c0.59031,-2.36124 1.06256,-4.77561 1.58793,-7.16046c1.00943,-4.63393 1.77093,-9.84047 3.98459,-14.01986c7.72716,-0.79102 15.30674,0.29515 23.02209,0.55489c6.76495,0.22432 13.65977,0.59031 20.37159,1.48758c3.96688,7.08372 6.75315,14.58656 9.67518,22.18384c0.9563,2.4852 4.22071,8.26434 1.77093,10.62558c-2.74494,2.64459 -6.49341,-1.06846 -8.01641,-3.18767c-2.75675,-3.77208 -8.71297,-15.30083 -14.21466,-8.11086c-4.72248,6.19235 1.46987,16.02691 -2.71543,22.93944c-5.62565,5.49578 -8.26434,-6.03297 -9.15571,-9.44496c-1.47577,-5.62565 -6.58786,-7.29033 -10.79677,-3.15816c-4.20891,4.13217 -4.25023,11.45201 -5.85587,17.00683c-1.23375,4.1971 -2.92203,11.35756 -7.82751,11.95377z" fill="#fab414"/><path d="M213.49924,212.25174c6.32812,-9.60434 12.68576,-18.60657 16.58771,-20.66085c8.21711,-4.33878 42.70302,-11.68223 53.08066,-13.12849c2.16053,-0.67295 25.37152,0.40731 26.4813,0.54309c0.00414,0.01946 0.00414,0.03957 0,0.05903c1.86538,0.11216 3.72486,0.29516 5.57843,0.51357c0.87366,0.47225 67.93286,10.54293 68.91277,10.72003c0.12987,0.09445 1.00943,9.68108 1.9008,21.93592z" fill="#005a5a"/><path d="M-16.52091,167.93718c21.44596,0.20071 53.7182,0.50176 57.26006,0.59031l0.10035,-0.06493c1.21014,0 46.35703,0 83.10382,3.68353c58.21636,5.84997 119.24259,16.78251 132.26483,20.33027c21.27477,5.79094 70.39445,42.57315 86.74013,50.45379l-359.49871,-2.72723z" fill="#008264"/><path d="M127.131,78.77087c-1.57022,4.9586 -5.82046,6.92433 -10.62558,7.77438c-7.31984,1.29278 -79.33765,1.86538 -131.28491,2.31401v-75.99649c14.61607,0.01181 26.90632,0.04132 27.57337,0.04132c4.0082,0.08264 9.11438,-0.08855 12.80382,1.68238c3.99049,1.92441 2.71543,5.07076 0.97401,8.21121c-2.40256,4.30336 -2.59736,7.24901 -0.63163,11.70584c4.48045,0.99172 9.38593,0 13.92541,-0.13577c4.53948,-0.13577 9.07306,-0.08264 13.61255,-0.27154c8.61852,-0.34828 17.17802,0.42502 25.77293,0.66705c4.17349,0.11806 9.7224,0.62573 13.524,2.53833c3.26441,1.62926 3.96098,5.82636 3.26441,9.10848c-0.9622,4.49226 -3.6245,5.38953 -7.19588,7.75077c-1.54071,1.02714 -2.6623,2.12512 -3.0519,4.0082c-0.53718,2.56194 0.74969,3.34115 2.57965,4.82873c2.90433,0.55489 5.53711,1.37542 8.52408,1.43445c2.82758,0.05313 5.62565,0.11806 8.44733,0.29516c5.36001,0.33057 11.15095,0.02361 16.18039,2.25498c4.25613,1.88309 7.00698,7.21949 5.60794,11.78849z" fill="#aadcdc"/><path d="M337.08651,205.43957c-2.11921,4.64574 -117.51299,1.95393 -117.51299,1.95393c1.92441,-1.23375 36.55199,-14.97616 41.86478,-16.78251c28.42932,-9.63386 66.82308,9.74602 75.64821,14.82858z" fill="#00a0b4"/><path d="M317.84831,202.49392c0,0 11.59369,-18.37044 18.76005,-21.62305c7.16636,-3.25261 10.4839,-1.58203 12.39651,-1.43445c8.50637,0.64344 21.84147,20.33027 22.6679,21.88279c-2.30221,2.02476 -53.82445,1.17472 -53.82445,1.17472z" fill="#f0e6d2"/><path d="M514.72846,238.20767l-192.32296,-4.29155c5.87949,-7.19588 23.55927,-44.66284 31.21558,-49.94612c7.65632,-5.28327 41.02063,-16.66445 51.15035,-19.33265c2.07199,-0.92088 25.24165,-2.59736 26.36324,-2.59736c0.01381,0.01629 0.0257,0.03411 0.03542,0.05313c1.86538,-0.11216 3.73076,-0.14758 5.59614,-0.14758c0.92679,0.36009 68.70617,2.40846 69.69789,2.4734c0.37189,0.23612 12.72118,73.57622 8.26434,73.78873z" fill="#005a5a"/><path d="M-37.21127,219.90806v-36.26864c10.53113,-0.05313 22.1012,0.16529 34.23797,0.85005c29.61585,1.67648 121.81044,13.08717 147.47711,35.41859z" fill="#281446"/><path d="M35.98716,230.82289c-1.18062,4.64574 -65.48307,1.95393 -65.48307,1.95393c1.06846,-1.23375 20.3775,-38.58856 23.32905,-40.3949c15.84392,-9.63386 37.23675,33.35841 42.15403,38.44098z" fill="#00a0b4"/><path d="M501.15133,234.0755l-320.4202,1.18062c16.34568,-3.86653 65.46536,-34.91683 86.74013,-37.75622c21.27477,-2.83939 113.97113,-8.9491 142.1171,-10.38355c5.74962,-0.49586 70.12881,-1.39903 73.25155,-1.39903l0.10035,0.03542c5.17111,-0.08264 10.35994,-0.08264 15.54876,-0.08264c0.21841,0.01771 1.1511,0.03542 2.6623,0.06493z" fill="#281446"/><path d="M420.86919,235.70475l-58.75354,3.48283c0,0 5.73781,-44.42672 28.88386,-46.82338c23.14605,-2.39076 28.34668,41.49288 29.86968,43.34055z" fill="#00a08c"/><path d="M448.24186,197.18113c6.97156,-0.71427 4.89957,10.92664 -1.97163,9.34461c-6.32222,-1.45216 -3.63631,-9.49218 1.97163,-9.34461z" fill="#008264"/><path d="M145.2299,194.52474c5.98574,2.60327 1.62926,7.56187 -2.49111,9.39183c-4.92909,2.18415 -10.74954,1.41674 -15.90295,0.54899c-1.80635,-0.30106 -5.31279,-1.00943 -4.98812,-3.47692c0.32467,-2.4675 3.65992,-3.45922 5.60204,-4.1853c5.29508,-1.97164 12.1899,-4.31517 17.78013,-2.2786z" fill="#f0e6d2"/><path d="M484.62266,384.0142h-500.58277v-177.78362l6.62918,-0.25383c1.68292,-0.30151 3.40007,-0.36312 5.10028,-0.183c16.12727,-0.5667 35.83771,-1.15701 53.99564,-1.66467c0.02361,-0.11806 0.07084,-0.23022 0.07084,-0.34828c4.10265,0.06493 8.11086,-0.04132 12.20171,-0.31286c0.03542,0.10626 0.03542,0.21251 0.03542,0.32467c22.296,-0.60802 40.0053,-1.05075 41.77623,-1.05075c5.25376,-0.05903 10.57835,-0.36599 15.8085,-0.84414c10.76135,-0.97992 21.58173,-1.25736 32.33717,-2.21366c10.8499,-0.96811 21.87098,-0.88547 32.78581,-1.29278c5.92081,-0.22432 45.58963,0.40731 50.81387,0.69657c1.31639,0.07674 57.17741,0.20661 59.79249,-0.12396c5.59023,-0.69066 11.21589,-0.98582 16.83564,-1.28097c11.06241,-0.58441 21.96543,-1.32229 33.05735,-1.28688c10.80857,0.03542 21.58173,-0.15938 32.39621,0.23022c11.66452,0.42502 52.30736,5.40133 60.51857,6.092c4.17738,0.354 8.37004,0.49585 12.56179,0.42502c3.88424,-0.06493 7.57368,-0.89137 11.48743,-0.89137c0.02361,0.01771 13.35281,-0.91498 22.37865,-1.45216z" fill="#dcd2b4"/><path d="M-111,254.73634c0,0 252.65262,-10.03527 299.2871,3.54186c46.63448,13.57713 -202.47628,37.77983 -202.47628,37.77983z" fill="#aaa082"/><path d="M123.35302,325.91c-12.23712,1.93031 -73.02723,4.42142 -83.824,3.86653c3.69534,-7.01288 25.22394,-14.75775 38.60627,-16.52868c7.51321,-1.01576 15.14924,-0.63956 22.52622,1.10978c4.35649,1.04485 23.28182,8.7661 22.69151,11.55236z" fill="#008264"/><path d="M36.31183,272.44564c3.40019,-18.88992 26.03857,-141.13128 41.77033,-138.00264c9.17932,1.82996 9.89359,16.71167 9.85227,24.48605c-0.05903,10.71412 -22.74464,104.0185 -25.05865,113.51659z" fill="#e6781e"/><path d="M17.3983,272.44564c-5.5135,-23.11653 -14.04938,-59.69804 -14.04938,-65.3355c-0.02952,-5.73781 0.49586,-16.71757 7.25491,-18.08119c9.07897,-1.80044 21.25115,52.72057 27.34906,83.41669z" fill="#ffc800"/><path d="M47.20305,263.37258c-8.47685,-0.23612 -15.4366,-0.28335 -19.93476,-13.54761c-3.95508,-11.65272 -7.89835,-25.13539 -10.20646,-38.58856c-2.57965,-15.0529 -12.39651,-65.44765 -0.53128,-79.16055c5.67878,-6.58195 12.46734,3.94327 15.10013,10.96796c4.05543,10.82038 6.68231,24.13777 8.33518,37.3371c3.31164,26.50491 5.95032,55.31204 7.2372,82.99166z" fill="#a0aa1e"/><path d="M27.17973,272.44564c0.183,-43.56487 1.00353,-165.7413 15.30083,-165.87707c9.3328,-0.10035 13.65387,15.84392 15.00568,25.38332c1.7119,12.08955 -2.8571,114.39615 -4.03772,140.49375z" fill="#ffdc00"/><path d="M20.93426,272.44564c-0.5608,-24.79301 0.50176,-47.97448 6.35764,-48.66514c6.8535,-0.80873 10.22417,9.56892 11.69404,15.07651c0.84414,3.17587 1.67058,17.48498 2.36124,33.58863z" fill="#f00a78"/><path d="M-21.2729,321.42365l-29.51549,-44.86355c16.86515,-7.08372 336.03389,-28.44703 338.39513,-28.92518c2.57965,-0.51947 5.16521,-1.11569 7.78028,-1.44626c5.59023,-0.69066 11.21589,-0.98582 16.83564,-1.28097c11.06241,-0.58441 21.96543,-1.32229 33.05735,-1.28688c10.80857,0.03542 21.58173,-0.15938 32.39621,0.23022c11.66452,0.42502 52.30736,5.40133 60.51857,6.092c4.1853,0.35419 50.35933,8.92549 54.1019,8.92549c0.53718,3.38838 -1.74141,69.11348 -3.32344,113.82355h-512.75496z" fill="#dcd2b4"/><path d="M328.27909,356.42902c-0.17709,-0.44863 -0.28925,-0.72018 -0.44273,-1.11568l-5.73191,-0.21841c-7.51464,-3.9964 0.54899,-10.03527 6.49341,-13.27607c8.22302,-4.43913 18.15793,-5.18292 30.15893,-5.80275c11.55827,-0.59031 23.06341,-0.183 30.54854,4.33878c7.67403,4.61622 9.97624,10.56655 3.90195,15.77308c-2.16644,-0.21251 -4.13217,0.45454 -6.22187,0c-9.30328,0.90317 -19.14965,0.40141 -28.58871,0.49586c-10.02936,0.12987 -20.08825,-0.05903 -30.11761,-0.1948z" fill="#00a08c"/><path d="M524.76373,333.24755l-0.59031,17.11899c0,0 -315.81578,10.03527 -278.62626,-5.9031c37.18952,-15.93837 209.56,-16.52868 279.21657,-11.21589z" fill="#aaa082"/><path d="M483.44204,347.14935v35.68423h-521.2259v-52.05352c20.93829,0.74379 218.65078,8.21711 223.96356,8.47095c15.64912,0.7556 31.57568,1.02124 47.22479,0.92679c32.20731,-0.183 64.52087,1.05075 96.70456,0.90908c32.47885,-0.14758 65.3414,1.85357 97.93241,2.84529c6.99517,0.21251 29.60404,1.56432 55.40058,3.21719z" fill="#dcd2b4"/><path d="M486.9839,333.83787l4.13217,31.28642h-198.34412z" fill="#aaa082"/><path d="M362.9657,331.35856c-7.25491,-5.18882 0,-10.57245 6.00935,-11.84162c7.20768,-1.51119 14.75775,1.18062 21.40464,3.8016c2.32582,0.92088 6.77676,2.8571 5.66698,6.06839c-1.10978,3.21129 -5.9031,3.57728 -8.67756,3.9964c-7.63271,1.1393 -17.5204,2.30221 -24.40341,-2.02476z" fill="#f0e6d2"/><path d="M426.39449,345.5201c6.79447,-35.4304 19.616,-74.13702 28.15188,-73.32829c9.98804,0.9445 11.60549,16.74709 12.0069,25.01143c0.23022,4.78741 -2.96926,25.36561 -6.91253,48.47034z" fill="#64be96"/><path d="M441.15224,375.6259c6.79447,-35.4304 19.616,-74.13702 28.15188,-73.32829c9.98804,0.9445 11.60549,16.74709 12.0069,25.01143c0.23022,4.78741 -2.96926,25.36561 -6.91253,48.47034z" fill="#00a0b4"/><path d="M424.44057,361.22824c2.55604,-14.17334 19.51565,-105.83666 31.32184,-103.47542c6.88301,1.36952 7.39068,12.53228 7.39068,18.35864c-0.04722,8.03412 -17.02454,77.99764 -18.79547,85.11678z" fill="#fab414"/><path d="M409.6533,369.65787c-4.13217,-17.3315 -15.12374,-64.26113 -15.14735,-68.5822c-0.02361,-4.32107 0.37189,-12.56179 5.45446,-13.57713c6.79447,-1.35181 22.99257,59.26711 27.57337,82.2892z" fill="#008264"/><path d="M438.47223,361.21053c4.89957,-22.19565 11.8121,-48.06303 17.23705,-46.98867c5.08257,1.03304 5.45446,9.27377 5.45446,13.57713c-0.01181,3.08732 -3.4238,18.55934 -6.87121,33.42925z" fill="#281446"/><path d="M432.59865,354.42787c-6.35764,-0.17709 -11.57598,-0.21251 -14.95255,-10.15923c-2.95155,-8.73659 -5.9031,-18.84859 -7.67403,-28.92518c-1.93622,-11.28672 -9.27377,-49.07246 -0.40141,-59.35566c4.26204,-4.93499 9.35051,2.95155 11.32214,8.22302c3.0401,8.11676 5.01173,18.0989 6.25138,27.9984c2.52062,19.86393 4.49816,41.46337 5.45446,62.21866z" fill="#ffdc00"/><path d="M417.59297,361.20463c0.14167,-32.66775 1.47577,-125.87177 12.1958,-125.97213c6.98927,-0.04132 9.5217,13.50629 10.53113,20.66085c1.28097,9.05535 -2.13102,85.76612 -3.02829,105.33489z" fill="#e6781e"/><path d="M387.19201,378.00485c-8.14037,-36.79992 -15.77308,-78.73553 -8.77791,-80.5891c6.76495,-1.79454 12.55589,10.71412 15.30083,17.39643c2.14873,5.23014 8.94319,35.95577 14.75775,63.19267z" fill="#e6781e"/><path d="M412.01454,369.25646c-0.41912,-18.60066 -4.55719,-59.26711 6.92433,-60.08174c11.48153,-0.81463 9.08487,49.19052 9.60434,61.26236z" fill="#ffc800"/><path d="M393.59688,376.45824c-1.93622,-11.29263 -9.25606,-49.07836 -0.40141,-59.36156c4.23843,-4.93499 9.35051,2.95745 11.32214,8.22892c3.0401,8.11086 5.01173,18.0989 6.25138,27.99249c1.00943,8.0046 1.92441,16.29255 2.73313,24.68676h-19.616c-0.09445,-0.51947 -0.17119,-1.03304 -0.28925,-1.54661z" fill="#f00a78"/><path d="M-11.12547,361.77133c0.10626,-11.47562 12.65034,-16.14497 22.63248,-15.87934c5.18882,0.14167 10.39536,1.64696 15.4366,2.78036c4.25613,0.9563 21.48138,9.98804 27.34315,13.09898z" fill="#f0e6d2"/><path d="M58.9384,371.94827c2.95155,-18.68921 26.2806,-23.49433 41.77033,-23.89574c7.63271,-0.20071 17.5322,-0.31877 23.82491,4.72248c6.16284,4.9586 7.08372,12.62673 2.1015,18.6715c-22.53572,1.5079 -45.14114,1.67545 -67.69674,0.50176z" fill="#8c8264"/><path d="M64.17445,349.07967c0.32667,1.20293 0.13395,2.48772 -0.53128,3.54186c-4.26204,0.55489 -8.63033,0.12396 -12.78021,0.14758c-0.85729,-0.2709 -1.47926,-1.01496 -1.59384,-1.9067c1.93031,-6.26319 11.32805,-6.87121 14.90533,-1.78274z" fill="#f0e6d2"/><path d="M463.1767,204.04053c0.30106,1.58203 0.34828,3.02829 -0.69066,4.62803c-5.53711,0.71427 -11.21589,0.15938 -16.62313,0.1889c-1.11642,-0.35467 -1.92656,-1.32362 -2.07789,-2.4852c2.51472,-8.15808 14.74594,-8.955 19.39168,-2.33172z" fill="#aaa082"/><text transform="translate(118,112.8125) scale(1.10672,1.10672)" font-size="40" xml:space="preserve" fill="#ffffff" fill-rule="nonzero" stroke="none" stroke-width="1" stroke-linecap="butt" stroke-linejoin="miter" stroke-miterlimit="10" stroke-dasharray="" stroke-dashoffset="0" font-family="Pixel" font-weight="normal" text-anchor="start" style="mix-blend-mode: normal"><tspan x="0" dy="0">GAME OVER</tspan></text></g></g></svg>